<svg width="224" height="51" viewBox="0 0 224 51" fill="none" xmlns="http://www.w3.org/2000/svg">
<g clip-path="url(#clip0_461_5385)">
<path d="M13.1032 6.86028L23.8178 39.302C23.8678 39.4755 23.8993 39.654 23.9116 39.8343C23.9158 39.9555 23.8952 40.0763 23.851 40.1891C23.8068 40.3019 23.74 40.4044 23.6548 40.4902C23.5696 40.5759 23.4678 40.6431 23.3557 40.6876C23.2436 40.7321 23.1236 40.7529 23.0031 40.7487C22.7961 40.767 22.5896 40.7086 22.4223 40.5845C22.255 40.4604 22.1385 40.2791 22.0946 40.0747L18.9382 30.3984H4.97343L1.86396 40.0961C1.81161 40.2959 1.69299 40.4717 1.52774 40.5943C1.36249 40.7169 1.16054 40.7789 0.955438 40.7701C0.832678 40.7747 0.710268 40.7545 0.595365 40.7108C0.480462 40.6671 0.375394 40.6007 0.286371 40.5155C0.197348 40.4303 0.126161 40.328 0.0769817 40.2147C0.0278026 40.1014 0.0016215 39.9794 0 39.8557C0.0357981 39.559 0.116343 39.2695 0.238859 38.9971L10.8084 6.89033C10.8929 6.65193 11.0484 6.44559 11.2538 6.29958C11.4592 6.15358 11.7044 6.07503 11.9558 6.07467C12.2064 6.06009 12.4546 6.12919 12.6621 6.27126C12.8696 6.41332 13.0247 6.6204 13.1032 6.86028ZM5.59616 28.6168H18.3624L11.9643 8.86937L5.59616 28.6168Z" fill="#35A6B4"/>
<path d="M37.7826 6.285C37.9937 6.30635 38.1894 6.40615 38.3314 6.56491C38.4733 6.72367 38.5514 6.93 38.5503 7.14358C38.5503 7.37129 38.4605 7.58969 38.3005 7.75071C38.1405 7.91173 37.9235 8.00217 37.6973 8.00217C36.9208 7.8749 36.1374 7.79463 35.3513 7.76177C32.9158 7.76177 31.3376 9.35014 31.3376 11.5653V16.485H37.6504C37.7708 16.4808 37.8908 16.5016 38.0029 16.5461C38.115 16.5905 38.2168 16.6577 38.3021 16.7435C38.3873 16.8292 38.454 16.9317 38.4982 17.0446C38.5424 17.1574 38.563 17.2782 38.5589 17.3994C38.5589 17.6419 38.4632 17.8745 38.2928 18.046C38.1224 18.2174 37.8913 18.3138 37.6504 18.3138H31.3376V39.83C31.336 39.9536 31.3098 40.0756 31.2606 40.1889C31.2115 40.3022 31.1403 40.4045 31.0512 40.4897C30.9622 40.5749 30.8572 40.6413 30.7422 40.685C30.6273 40.7288 30.5049 40.7489 30.3822 40.7443C30.2616 40.7485 30.1414 40.7277 30.029 40.6833C29.9167 40.6389 29.8146 40.5717 29.7291 40.486C29.6435 40.4004 29.5763 40.2979 29.5317 40.1851C29.487 40.0722 29.4658 39.9514 29.4694 39.83V11.7241C29.4694 8.20822 31.8623 6.04459 35.2575 6.04459C36.1052 6.0358 36.9515 6.11637 37.7826 6.285Z" fill="#35A6B4"/>
<path d="M52.175 16.3423C52.3978 16.3693 52.6034 16.477 52.7532 16.6452C52.9031 16.8135 52.9871 17.0308 52.9897 17.2567C52.9899 17.3743 52.9661 17.4907 52.9198 17.5987C52.8735 17.7067 52.8057 17.8039 52.7205 17.8844C52.6353 17.9649 52.5346 18.027 52.4246 18.0667C52.3146 18.1064 52.1977 18.1229 52.0811 18.1153C51.0546 17.9244 50.0151 17.8125 48.9717 17.7804C46.8688 17.7804 45.0987 19.3645 45.0987 22.0734V39.8375C45.0971 39.9615 45.0708 40.0839 45.0214 40.1975C44.9719 40.3111 44.9004 40.4136 44.8109 40.4988C44.7214 40.5841 44.6158 40.6504 44.5004 40.6939C44.385 40.7373 44.2621 40.7571 44.139 40.7519C44.0186 40.7561 43.8986 40.7353 43.7865 40.6908C43.6744 40.6464 43.5725 40.5792 43.4873 40.4934C43.4021 40.4076 43.3353 40.3052 43.2912 40.1923C43.247 40.0795 43.2263 39.9587 43.2305 39.8375V22.0218C43.2305 18.3171 45.6703 16.0117 48.8778 16.0117C49.9855 16.0027 51.0909 16.1135 52.175 16.3423Z" fill="#35A6B4"/>
<path d="M60.8144 9.31659C60.8194 9.59775 60.7415 9.8741 60.5904 10.1106C60.4393 10.3472 60.2219 10.5333 59.9656 10.6454C59.7094 10.7575 59.4259 10.7905 59.1509 10.7404C58.876 10.6902 58.6221 10.559 58.4212 10.3635C58.2204 10.168 58.0817 9.91694 58.0228 9.64207C57.9638 9.3672 57.9872 9.08092 58.09 8.81943C58.1928 8.55795 58.3703 8.33302 58.6002 8.17316C58.8301 8.0133 59.1019 7.92568 59.3813 7.92139C59.7508 7.92948 60.1038 8.07768 60.3695 8.33635C60.6352 8.59502 60.7941 8.94509 60.8144 9.31659ZM60.3495 16.9151V39.8264C60.3522 39.9513 60.3289 40.0754 60.2812 40.1907C60.2336 40.306 60.1625 40.4101 60.0725 40.4961C59.9826 40.5822 59.8758 40.6484 59.759 40.6906C59.6421 40.7327 59.5178 40.7498 59.394 40.7408C59.2736 40.745 59.1536 40.7242 59.0415 40.6798C58.9294 40.6353 58.8276 40.5681 58.7424 40.4823C58.6572 40.3966 58.5904 40.2941 58.5462 40.1813C58.502 40.0684 58.4813 39.9476 58.4855 39.8264V16.9151C58.4813 16.7939 58.502 16.6731 58.5462 16.5603C58.5904 16.4474 58.6572 16.3449 58.7424 16.2592C58.8276 16.1734 58.9294 16.1062 59.0415 16.0617C59.1536 16.0173 59.2736 15.9965 59.394 16.0007C59.5178 15.9917 59.6421 16.0088 59.759 16.0509C59.8758 16.0931 59.9826 16.1593 60.0725 16.2454C60.1625 16.3315 60.2336 16.4355 60.2812 16.5508C60.3289 16.6661 60.3522 16.7902 60.3495 16.9151Z" fill="#35A6B4"/>
<path d="M147.483 7.4696C148.059 7.71 148.251 7.99763 148.251 8.43121C148.255 8.54195 148.238 8.65248 148.199 8.75619C148.16 8.85991 148.101 8.95467 148.025 9.03483C147.949 9.11498 147.857 9.17888 147.756 9.22269C147.655 9.2665 147.546 9.28932 147.436 9.2898C147.141 9.28466 146.851 9.21891 146.583 9.09661C144.435 8.25161 142.146 7.8276 139.839 7.84738C135.536 7.84738 132.716 10.831 132.716 13.8575C132.716 17.2918 134.422 18.863 137.353 20.4042L142.855 23.2461C145.964 24.8817 149.168 26.9509 149.168 32.1969C149.168 37.6832 144.625 40.7183 139.699 40.7183C136.86 40.728 134.054 40.1203 131.471 38.9368C131.291 38.8778 131.134 38.7629 131.023 38.6087C130.912 38.4544 130.852 38.2687 130.852 38.0782C130.838 37.9595 130.85 37.8392 130.888 37.7258C130.925 37.6123 130.986 37.5084 131.067 37.4213C131.149 37.3342 131.248 37.266 131.358 37.2215C131.468 37.1771 131.587 37.1573 131.705 37.1638C132.003 37.182 132.294 37.264 132.558 37.4042C134.813 38.3691 137.235 38.8767 139.686 38.8981C143.606 38.8981 147.24 36.5842 147.24 32.2527C147.24 28.2602 144.945 26.4787 141.789 24.8431L136.337 22.0012C132.844 20.1724 130.792 17.91 130.792 13.9176C130.792 9.53451 134.631 6.02289 139.929 6.02289C142.518 5.98641 145.088 6.47855 147.483 7.4696Z" fill="#35A6B4"/>
<path d="M158.067 9.31659C158.072 9.59775 157.994 9.8741 157.843 10.1106C157.692 10.3472 157.474 10.5333 157.218 10.6454C156.962 10.7575 156.678 10.7905 156.403 10.7404C156.128 10.6902 155.874 10.559 155.674 10.3635C155.473 10.168 155.334 9.91694 155.275 9.64207C155.216 9.3672 155.24 9.08092 155.342 8.81943C155.445 8.55795 155.623 8.33302 155.853 8.17316C156.082 8.0133 156.354 7.92568 156.634 7.92139C157.003 7.92948 157.356 8.07768 157.622 8.33635C157.888 8.59502 158.046 8.94509 158.067 9.31659ZM157.576 16.9151V39.8264C157.579 39.9513 157.556 40.0754 157.508 40.1907C157.46 40.306 157.389 40.4101 157.299 40.4961C157.209 40.5822 157.103 40.6484 156.986 40.6906C156.869 40.7327 156.745 40.7498 156.621 40.7408C156.5 40.745 156.38 40.7242 156.268 40.6798C156.156 40.6353 156.054 40.5681 155.969 40.4823C155.884 40.3966 155.817 40.2941 155.773 40.1813C155.729 40.0684 155.708 39.9476 155.712 39.8264V16.9151C155.707 16.7937 155.728 16.6726 155.772 16.5595C155.816 16.4464 155.882 16.3436 155.968 16.2577C156.053 16.1719 156.155 16.1047 156.267 16.0604C156.38 16.0162 156.5 15.9958 156.621 16.0007C156.745 15.9917 156.869 16.0088 156.986 16.0509C157.103 16.0931 157.209 16.1593 157.299 16.2454C157.389 16.3315 157.46 16.4355 157.508 16.5508C157.556 16.6661 157.579 16.7902 157.576 16.9151Z" fill="#35A6B4"/>
<path d="M180.817 17.2092C181.074 17.3097 181.293 17.4872 181.446 17.7176C181.599 17.948 181.677 18.2202 181.67 18.4971V42.8508C181.67 47.6632 178.561 50.986 173.489 50.986C171.23 50.9881 168.997 50.4944 166.946 49.5392C166.803 49.4688 166.683 49.3594 166.599 49.2236C166.514 49.0878 166.469 48.931 166.469 48.7708C166.469 48.5431 166.559 48.3247 166.719 48.1637C166.878 48.0027 167.095 47.9122 167.322 47.9122C167.551 47.9247 167.777 47.9739 167.991 48.0582C169.715 48.8564 171.592 49.2666 173.489 49.2602C177.507 49.2602 179.853 46.7102 179.853 42.9067V38.4849C178.007 39.9168 175.751 40.7103 173.421 40.7473C168.687 40.7473 165.317 38.0514 165.317 32.6122V24.138C165.317 18.6988 168.729 16.0072 173.494 16.0072C175.987 15.9665 178.467 16.3735 180.817 17.2092ZM167.168 23.9491V32.7968C167.168 36.6948 169.561 38.9572 173.481 38.9572C175.814 38.9051 178.052 38.0178 179.794 36.4544V18.7504C177.754 18.0916 175.623 17.7669 173.481 17.7887C169.484 17.7716 167.185 20.1928 167.185 23.9491H167.168Z" fill="#35A6B4"/>
<path d="M192.296 6.95898V18.1206C194.242 16.816 196.51 16.0831 198.847 16.0042C203.722 16.0042 206.687 18.8418 206.687 24.135V39.8299C206.691 39.9512 206.67 40.0719 206.626 40.1848C206.582 40.2976 206.515 40.4001 206.43 40.4859C206.345 40.5716 206.243 40.6388 206.131 40.6833C206.019 40.7278 205.899 40.7485 205.778 40.7443C205.656 40.7489 205.533 40.7288 205.418 40.685C205.303 40.6413 205.198 40.5749 205.109 40.4897C205.02 40.4045 204.949 40.3022 204.9 40.1889C204.851 40.0756 204.825 39.9536 204.823 39.8299V23.9461C204.823 19.8507 202.481 17.7858 198.702 17.7858C196.374 17.863 194.132 18.689 192.304 20.1426V39.8299C192.302 39.954 192.276 40.0764 192.227 40.19C192.177 40.3036 192.106 40.406 192.016 40.4913C191.927 40.5765 191.821 40.6428 191.706 40.6863C191.59 40.7298 191.467 40.7495 191.344 40.7443C191.224 40.7485 191.104 40.7278 190.992 40.6833C190.88 40.6388 190.778 40.5716 190.693 40.4859C190.607 40.4001 190.541 40.2976 190.496 40.1848C190.452 40.0719 190.432 39.9512 190.436 39.8299V6.95898C190.432 6.83777 190.452 6.71699 190.496 6.60415C190.541 6.49132 190.607 6.38883 190.693 6.30307C190.778 6.21731 190.88 6.1501 190.992 6.10564C191.104 6.06117 191.224 6.04039 191.344 6.04459C191.467 6.03999 191.589 6.06018 191.704 6.10396C191.818 6.14774 191.923 6.21422 192.012 6.29948C192.101 6.38473 192.171 6.48703 192.22 6.6003C192.269 6.71358 192.294 6.83555 192.296 6.95898Z" fill="#35A6B4"/>
<path d="M216.78 6.95866V16.4847H223.046C223.169 16.4757 223.294 16.4928 223.411 16.5349C223.527 16.5771 223.634 16.6433 223.724 16.7294C223.814 16.8154 223.885 16.9195 223.933 17.0348C223.981 17.1501 224.004 17.2742 224.001 17.3991C223.999 17.5227 223.973 17.6447 223.924 17.758C223.875 17.8713 223.804 17.9736 223.715 18.0588C223.626 18.144 223.521 18.2104 223.406 18.2541C223.291 18.2979 223.168 18.3181 223.046 18.3135H216.78V34.4849C216.78 37.4213 218.213 38.9624 220.751 38.9624C222.137 38.9624 222.615 38.722 223.093 38.722C223.209 38.7144 223.326 38.731 223.436 38.7707C223.546 38.8104 223.647 38.8724 223.732 38.9529C223.817 39.0334 223.885 39.1307 223.931 39.2386C223.978 39.3466 224.001 39.463 224.001 39.5806C223.999 39.8066 223.915 40.0239 223.765 40.1921C223.615 40.3603 223.409 40.468 223.186 40.495C222.368 40.6641 221.535 40.7447 220.7 40.7354C217.351 40.7354 214.916 38.6662 214.916 34.3819V6.95866C214.911 6.83729 214.931 6.71623 214.975 6.6031C215.019 6.48997 215.086 6.38723 215.171 6.30133C215.257 6.21544 215.359 6.14825 215.471 6.10401C215.584 6.05977 215.704 6.03943 215.824 6.04427C215.947 6.03908 216.07 6.05884 216.185 6.10236C216.3 6.14587 216.406 6.21227 216.495 6.29759C216.584 6.3829 216.655 6.48539 216.704 6.59896C216.753 6.71253 216.779 6.83486 216.78 6.95866Z" fill="#35A6B4"/>
<path d="M86.0247 11.9608L86.9545 12.8967C89.5254 10.3095 93.012 8.85612 96.6476 8.85612C100.283 8.85612 103.77 10.3095 106.341 12.8967L107.266 11.9608C104.447 9.12963 100.628 7.53955 96.6454 7.53955C92.6631 7.53955 88.8435 9.12963 86.0247 11.9608Z" fill="#35A6B4"/>
<path d="M83.4778 9.39779L84.4034 10.3337C87.6502 7.06621 92.0535 5.23061 96.645 5.23061C101.236 5.23061 105.64 7.06621 108.887 10.3337L109.812 9.39779C106.317 5.88866 101.582 3.91797 96.645 3.91797C91.7082 3.91797 86.9729 5.88866 83.4778 9.39779Z" fill="#35A6B4"/>
<path d="M71.2589 27.7519C71.1373 27.6295 71.069 27.4636 71.069 27.2905C71.069 27.1174 71.1373 26.9515 71.2589 26.8291L86.0377 11.9549L86.9425 12.8655L72.1638 27.7398C72.0443 27.8601 71.8828 27.9287 71.7138 27.931C71.5448 27.9333 71.3816 27.869 71.2589 27.7519Z" fill="#35A6B4"/>
<path d="M68.7277 25.2065C68.6061 25.0841 68.5378 24.9181 68.5378 24.7451C68.5378 24.572 68.6061 24.4061 68.7277 24.2837L83.5064 9.40945L84.4113 10.3201L69.6325 25.1944C69.513 25.3147 69.3516 25.3833 69.1826 25.3856C69.0135 25.3878 68.8503 25.3236 68.7277 25.2065Z" fill="#35A6B4"/>
<path d="M66.081 22.5537C65.9594 22.4313 65.8911 22.2653 65.8911 22.0923C65.8911 21.9192 65.9594 21.7532 66.081 21.6309L80.8597 6.75661L81.7645 7.66728L66.9858 22.5415C66.8663 22.6619 66.7048 22.7305 66.5358 22.7327C66.3668 22.735 66.2036 22.6707 66.081 22.5537Z" fill="#35A6B4"/>
<path d="M86.1698 2.57156C84.2836 3.63141 82.5596 4.96023 81.0513 6.51676C80.9916 6.58974 80.949 6.64553 80.9191 6.68846C80.8971 6.7063 80.8771 6.72645 80.8594 6.74857L81.0684 6.95892L81.7807 7.67583C82.2786 7.16474 82.8056 6.68313 83.3589 6.23341C87.3969 2.92615 92.5097 1.24266 97.7092 1.50828C102.909 1.7739 107.826 3.96975 111.51 7.67153L112.56 6.61979C109.96 4.00467 106.763 2.07035 103.249 0.985971C99.7352 -0.0984074 96.0107 -0.299814 92.4015 0.399335H92.3545C90.7383 0.72114 89.162 1.22067 87.6541 1.88897C87.1252 2.09932 86.6304 2.31827 86.1698 2.57156Z" fill="#35A6B4"/>
<path d="M107.126 32.7337L106.2 31.7979C103.629 34.385 100.142 35.8384 96.5069 35.8384C92.8714 35.8384 89.3847 34.385 86.8139 31.7979L85.884 32.7337C88.7028 35.5649 92.5225 37.155 96.5048 37.155C100.487 37.155 104.307 35.5649 107.126 32.7337Z" fill="#35A6B4"/>
<path d="M109.672 35.2972L108.746 34.3613C107.139 35.9791 105.231 37.2623 103.13 38.1378C101.03 39.0134 98.7796 39.464 96.5065 39.464C94.2334 39.464 91.9826 39.0134 89.8825 38.1378C87.7825 37.2623 85.8743 35.9791 84.267 34.3613L83.3372 35.2972C86.8323 38.8063 91.5675 40.777 96.5043 40.777C101.441 40.777 106.176 38.8063 109.672 35.2972Z" fill="#35A6B4"/>
<path d="M121.888 16.9434C122.01 17.0658 122.078 17.2317 122.078 17.4048C122.078 17.5779 122.01 17.7438 121.888 17.8662L107.11 32.7405L106.205 31.8298L120.983 16.9556C121.105 16.8332 121.27 16.7644 121.442 16.7644C121.614 16.7644 121.779 16.8332 121.9 16.9556L121.888 16.9434Z" fill="#35A6B4"/>
<path d="M124.42 19.4913C124.541 19.6136 124.609 19.7796 124.609 19.9527C124.609 20.1257 124.541 20.2917 124.42 20.4141L109.641 35.2883L108.736 34.3776L123.515 19.5034C123.634 19.3831 123.796 19.3144 123.965 19.3122C124.134 19.3099 124.297 19.3742 124.42 19.4913Z" fill="#35A6B4"/>
<path d="M127.062 22.1465C127.184 22.2689 127.252 22.4349 127.252 22.6079C127.252 22.781 127.184 22.947 127.062 23.0693L112.284 37.9436L111.379 37.0329L126.158 22.1587C126.277 22.0383 126.438 21.9697 126.607 21.9675C126.776 21.9652 126.94 22.0295 127.062 22.1465Z" fill="#35A6B4"/>
<path d="M106.985 42.1233C108.87 41.0621 110.594 39.7334 112.103 38.1781L112.236 38.0064L112.295 37.9463L112.086 37.736L111.37 37.019C110.873 37.5312 110.346 38.0128 109.791 38.4615C105.752 41.7748 100.635 43.4619 95.4303 43.1963C90.2259 42.9306 85.3045 40.731 81.6188 37.0233L80.5737 38.0751C83.1723 40.6905 86.3681 42.625 89.8816 43.7095C93.395 44.7939 97.119 44.9951 100.728 44.2956H100.77C102.391 43.9804 103.973 43.4881 105.488 42.8274C106.029 42.5955 106.52 42.3637 106.985 42.1233Z" fill="#35A6B4"/>
<path d="M96.4443 31.5014C101.415 31.5014 105.444 27.446 105.444 22.4433C105.444 17.4407 101.415 13.3853 96.4443 13.3853C91.4737 13.3853 87.4443 17.4407 87.4443 22.4433C87.4443 27.446 91.4737 31.5014 96.4443 31.5014Z" fill="#35A6B4"/>
<path d="M98.9811 27.1347C99.1134 27.3022 99.0195 27.4267 98.9172 27.564L98.0641 28.5042C98.0276 28.5373 97.981 28.557 97.9319 28.56C97.6197 28.5484 97.3076 28.5846 97.0063 28.6673C96.9466 28.6673 96.8527 28.6115 96.776 28.5729C96.7245 28.5465 96.6811 28.5067 96.6503 28.4576C96.6195 28.4085 96.6025 28.3519 96.6011 28.2938C96.5547 28.0992 96.483 27.9115 96.3878 27.7358C96.3648 27.6796 96.3332 27.6274 96.294 27.5812C96.2041 27.4771 96.1362 27.3556 96.0944 27.2243C96.0526 27.0929 96.0378 26.9544 96.0508 26.8171C96.0472 26.7473 96.0267 26.6795 95.9911 26.6196C95.8759 26.3963 95.7608 26.1688 95.6414 25.9499C95.5699 25.819 95.5486 25.6662 95.5817 25.5206C95.6181 25.2004 95.703 24.8877 95.8333 24.5933C95.8525 24.5333 95.8525 24.4687 95.8333 24.4087C95.6954 23.8862 95.4416 23.4018 95.0911 22.9921C95.054 22.9576 95.0306 22.9108 95.0251 22.8603C95.0196 22.8098 95.0324 22.759 95.0613 22.7173C95.0594 22.7031 95.0594 22.6886 95.0613 22.6744C95.1246 22.5638 95.1543 22.4369 95.1468 22.3095C95.1392 22.1821 95.0946 22.0597 95.0186 21.9575C95.0064 21.9378 94.9894 21.9216 94.9693 21.9104C94.9491 21.8991 94.9265 21.8931 94.9034 21.8931C94.7611 21.9171 94.6151 21.908 94.4768 21.8663C94.3385 21.8246 94.2116 21.7515 94.1058 21.6527C94.0694 21.6205 94.0239 21.6006 93.9756 21.596C93.9274 21.5914 93.8789 21.6022 93.8371 21.6269C93.6708 21.6999 93.4916 21.7557 93.321 21.8287C93.2896 21.8488 93.2518 21.856 93.2152 21.8488C93.1787 21.8416 93.1463 21.8206 93.1248 21.79C93.0945 21.7455 93.048 21.7146 92.9954 21.7042C92.9427 21.6938 92.8881 21.7045 92.8433 21.7342C92.6724 21.808 92.4972 21.8711 92.3186 21.9231C92.2524 21.9467 92.1801 21.9467 92.1139 21.9231C91.875 21.7857 91.6362 21.6398 91.4016 21.4938C91.3758 21.477 91.3537 21.4549 91.3369 21.4291C91.32 21.4032 91.3086 21.3741 91.3035 21.3436C91.2822 21.2207 91.2326 21.1046 91.1585 21.0047C91.0844 20.9047 90.9879 20.8238 90.8769 20.7683C90.8272 20.7355 90.7847 20.6926 90.7524 20.6423C90.7201 20.5921 90.6986 20.5355 90.6893 20.4764C90.659 20.2146 90.6927 19.9494 90.7874 19.7037C90.847 19.5122 90.847 19.307 90.7874 19.1155C90.7727 19.0743 90.7693 19.0298 90.7776 18.9867C90.7858 18.9437 90.8054 18.9037 90.8343 18.8708C90.9964 18.6476 91.1585 18.4415 91.3077 18.1926C91.401 18.0355 91.5373 17.9089 91.7002 17.8277C91.7769 17.789 91.8495 17.7289 91.9262 17.6903C91.9979 17.6696 92.0601 17.6244 92.1021 17.5625C92.1442 17.5006 92.1634 17.4258 92.1566 17.3512C92.1605 17.291 92.1863 17.2345 92.2291 17.1923C92.3869 17.0034 92.5532 16.8188 92.7281 16.6428C92.7622 16.6042 92.8348 16.5999 92.8902 16.587C92.9027 16.5828 92.9161 16.5828 92.9286 16.587C93.096 16.6565 93.2782 16.6818 93.458 16.6608C93.6379 16.6398 93.8094 16.573 93.9566 16.4668C94.0287 16.4283 94.1095 16.4091 94.1911 16.411C94.3404 16.411 94.4897 16.411 94.639 16.411C94.7883 16.411 95.0655 16.4453 95.2276 16.2607C95.3577 16.3325 95.4544 16.453 95.4968 16.596C95.5391 16.7391 95.5236 16.8932 95.4537 17.0249C95.6115 17.0249 95.748 17.0249 95.8802 17.0249C95.9216 17.0208 95.9633 17.0287 96.0003 17.0478C96.0374 17.0668 96.0682 17.0961 96.0892 17.1322C96.23 17.4027 96.5158 17.364 96.7461 17.4284C96.7461 17.4284 96.8015 17.4284 96.8229 17.3898C96.8451 17.3644 96.8651 17.3371 96.8826 17.3082C97.1172 16.9905 97.1129 17.0077 97.4797 17.1365C97.7792 17.2365 98.0839 17.3196 98.3925 17.3855C98.5221 17.4009 98.6534 17.3862 98.7764 17.3426C98.7901 17.3372 98.8047 17.3347 98.8194 17.3353C98.8341 17.3359 98.8485 17.3395 98.8617 17.346C98.8749 17.3524 98.8866 17.3615 98.8962 17.3728C98.9057 17.384 98.9129 17.3971 98.9172 17.4112C99.0878 17.7246 99.2669 18.038 99.4418 18.3514C99.4619 18.381 99.475 18.4147 99.4802 18.4502C99.511 18.7503 99.6383 19.0322 99.8428 19.2529C99.9631 19.4129 100.054 19.5931 100.111 19.7852C100.123 19.8432 100.155 19.895 100.201 19.9312C100.452 20.1037 100.666 20.3239 100.832 20.5794C100.94 20.7008 101.064 20.8076 101.199 20.8971C101.229 20.8971 101.301 20.8971 101.353 20.8971L102.167 20.6267C102.232 20.8628 102.209 21.1144 102.103 21.335C101.952 21.6617 101.735 21.9538 101.468 22.1936C101.272 22.3481 101.101 22.537 100.905 22.7001C100.668 22.9167 100.459 23.1618 100.282 23.4299C100.264 23.452 100.252 23.4788 100.248 23.5072C100.204 23.755 100.228 24.0102 100.316 24.2456C100.442 24.5986 100.485 24.9765 100.44 25.3489C100.44 25.3832 100.397 25.4262 100.359 25.4519C100.077 25.658 99.7958 25.8812 99.5058 26.0615C99.4739 26.0782 99.448 26.1047 99.4319 26.137C99.4159 26.1694 99.4104 26.2061 99.4162 26.2418C99.4383 26.4184 99.4497 26.5961 99.4503 26.7741C99.449 26.8011 99.4422 26.8276 99.4305 26.8519C99.4188 26.8763 99.4023 26.898 99.3821 26.9158C99.2523 26.9957 99.1185 27.0688 98.9811 27.1347Z" fill="white"/>
<path d="M101.894 24.8086C101.967 24.9674 102.044 25.1263 102.108 25.2894C102.12 25.3285 102.12 25.3705 102.108 25.4096C101.894 25.9376 101.681 26.4656 101.468 26.9894C101.454 27.013 101.436 27.0333 101.414 27.0489C101.392 27.0644 101.366 27.0749 101.34 27.0795C100.999 27.0795 101.007 27.0795 100.875 26.7533C100.842 26.6948 100.827 26.6282 100.831 26.5613C100.835 26.4943 100.857 26.4299 100.896 26.3755C101.018 26.1533 101.065 25.897 101.029 25.6457C101.029 25.5985 101.067 25.5169 101.101 25.5126C101.249 25.4764 101.388 25.4066 101.505 25.3083C101.623 25.2101 101.717 25.0862 101.779 24.946L101.873 24.8215L101.894 24.8086Z" fill="#35A6B4"/>
</g>
<defs>
<clipPath id="clip0_461_5385">
<rect width="224" height="51" fill="white"/>
</clipPath>
</defs>
</svg>
